<svg xmlns="http://www.w3.org/2000/svg" viewBox="0 0 2000.13 329.69"><defs><style>.a{fill:#e9f6ff;}.b{fill:#2563eb;}</style></defs><title>Asset 2</title><path class="a" d="M677.8,148.15c151.74,0,285.45,106.66,433.56,108.11,162.37,1.59,267.18-46.33,411.88-46.33,161.06,0,399.79-76,475.79,63.22L2000.13,40H0V328C336.21,350.34,479.49,148.15,677.8,148.15Z"/><path class="b" d="M0,180.59c63.81,45,203.44,54.75,310.38,39.6C461.07,198.83,717.08,36,899,147.63c162.53,99.79,288.19,60,347.52,73.15,77.41,17.19,59.72,69.21,164.81,94,109.25,25.75,305.82-37.28,386.79-45.29,81.22-8.05,164.57,5,202.05,46.69V0H0Z"/></svg>