<svg xmlns="http://www.w3.org/2000/svg" viewBox="0 0 282.95 289.27"><defs><style>.a{fill:#eaf4fe;}.b{fill:#fec12f;}.c{fill:#ffab01;}.d{fill:#3d7aa8;}.e{fill:none;stroke:#f4da80;stroke-miterlimit:10;stroke-width:7.41px;}.f{fill:#34688f;}.g{fill:#e9d6b8;}.h{fill:#163f59;}.i{fill:#0253a2;}.j{fill:#7dc2f5;}.k{fill:#e2c59c;}.l{fill:#0561fc;}</style></defs><title>Asset 1</title><path class="a" d="M98.4,2.32C142.22-5.33,187,6.82,220,25.76c33.42,19.35,55.14,45.5,61.13,74.92,6.05,29.71-3.72,59.26-20.1,89-16.71,29.37-40,59-68.63,79.31-54.87,42.11-127.59,18.12-172.48-68.36C-24.92,114.76,7.92,15.28,98.4,2.32Z"/><path class="b" d="M150.25,61.48C101.48,43,51,57.89,31.16,112.06s8.77,99.08,57.55,117.58c38,14.44,61.2-7.72,101.19-18.79,7.91-2.19,30.76,11.67,30.76,11.67l24.79-67.74s-26.19-4.73-30.76-11.67C191.56,108.09,188.31,75.92,150.25,61.48Z"/><path class="c" d="M214.74,188.06C159.47,203.37,127.47,234,74.9,214a163,163,0,0,1-31.38-15.84c11.15,13.65,26.72,24.45,45.19,31.45,38,14.44,61.2-7.72,101.19-18.79,7.91-2.19,30.76,11.67,30.76,11.67L232,191.44C225.22,188.74,218.65,187,214.74,188.06Z"/><path class="d" d="M220.23,223.68l9.17,3.48a29.24,29.24,0,0,0,37.79-17.59l5.13-14a30.07,30.07,0,0,0-17.27-38.47l-9.17-3.48Z"/><polyline class="e" points="103.04 181.59 93.19 165.65 110.88 160.13 101.05 144.18 118.74 138.66 108.91 122.69 126.61 117.17 116.78 101.19 134.49 95.63"/><polyline class="e" points="119.61 173.77 170.78 175.5 228.53 197.4"/><polyline class="e" points="138.84 121.22 178.65 154 236.4 175.91"/><polygon class="f" points="255.13 165.32 239.09 209.11 231.94 206.4 247.98 162.61 255.13 165.32"/><polygon class="f" points="263.54 182.48 252 214.01 244.85 211.3 256.39 179.77 263.54 182.48"/><path class="g" d="M119.48,51.82c.26,3.18,1.93,5.93,3.7,6.06h5c1.76-.13,3.44-2.88,3.7-6.06l1.23-15.7c.28-3.14-.92-9.44-3.6-11.3a6.53,6.53,0,0,0-7.67,0c-2.68,1.86-3.88,8.16-3.61,11.3Q118.86,44,119.48,51.82Z"/><path class="h" d="M124.94,21.12V17.49h-7.7a4.74,4.74,0,0,0-4.69,4.78v3.62h7.7A4.72,4.72,0,0,0,124.94,21.12Z"/><path class="g" d="M132.33,43.16a4.21,4.21,0,0,1-4.18,4.25h-9.46a4.2,4.2,0,0,1-4.17-4.25V23.89a4.21,4.21,0,0,1,4.17-4.26h9.46a4.22,4.22,0,0,1,4.18,4.26Z"/><path class="h" d="M125.25,17.49a4.68,4.68,0,0,1,3.92,2.15h1.61a3.68,3.68,0,0,1,3.63,3.71v9.14h-2.55V28.78a2.6,2.6,0,0,0-2.56-2.61h-7.73a4.73,4.73,0,0,1-4.69-4.77V17.49Z"/><path class="g" d="M131.05,34.87a2.24,2.24,0,0,1,2.22-2.26h.19a2.25,2.25,0,0,1,2.23,2.26v2.75a2.25,2.25,0,0,1-2.23,2.27h-.19a2.22,2.22,0,0,1-2-1.35"/><path class="i" d="M156.68,239.05l-.23,6.46,5.14.41s.35-.77.79-.74.77.87,1.27.91l2.77.23,10.32.84s.32-1.18.07-1.61a4.87,4.87,0,0,0-1.52-.89c-2.59-1-10-4.29-11.09-7.25C162.87,233.81,156.68,239.05,156.68,239.05Z"/><path class="j" d="M176.89,245.81a4.49,4.49,0,0,1-.15,1.35l-10.32-.84-2.77-.23c-.5,0-.91-.88-1.27-.91s-.79.74-.79.74l-5.14-.41-.12-1.38Z"/><path class="j" d="M167.56,242.51c.1.18.41,0,.82-.29,1-.73.91-.64.68-.8s-.35-.21-.93.23C167.72,242,167.45,242.34,167.56,242.51Z"/><path class="j" d="M166.22,241.71c.1.18.41,0,.83-.29,1-.73.91-.64.67-.8s-.35-.21-.94.23C166.38,241.16,166.12,241.54,166.22,241.71Z"/><path class="j" d="M165,240.83c.1.18.42,0,.83-.29,1-.73.91-.65.68-.8s-.36-.22-.94.22C165.17,240.27,164.9,240.65,165,240.83Z"/><path class="i" d="M105.63,243.59a5,5,0,0,0-.32,2.4s8.42,1.75,11.21,1.25a13.94,13.94,0,0,0,3.17-1.35c.2-.11.6-.82.79-.93.36-.2.51.2.82,0a10.5,10.5,0,0,0,1.38-.91c1.09-4.32.23-6.17.23-6.17s-5.23-3.14-6.74-1.37C112.63,240.71,107,241.6,105.63,243.59Z"/><path class="j" d="M105.31,244.51c2.6.59,8,1.8,9.07,1.67,4.22-.51,6.9-2.76,8.7-4.13a17.89,17.89,0,0,1-.4,2,10.5,10.5,0,0,1-1.38.91c-.31.18-.46-.22-.82,0-.19.11-.59.82-.79.93a13.94,13.94,0,0,1-3.17,1.35c-2.79.5-11.21-1.25-11.21-1.25A7.11,7.11,0,0,1,105.31,244.51Z"/><path class="j" d="M110.25,240.73c0,.18.3.32.78.33a13.22,13.22,0,0,1,2.91.39c.48.12.9.09.94-.11s-.33-.49-.8-.6a13.53,13.53,0,0,0-2.88-.37C110.73,240.36,110.31,240.54,110.25,240.73Z"/><path class="j" d="M112,239.55c0,.2.3.37.77.43a13.24,13.24,0,0,1,2.85.67c.47.16.87.15.91-.05s-.32-.53-.78-.69a13.09,13.09,0,0,0-2.83-.63C112.46,239.23,112.05,239.37,112,239.55Z"/><path class="j" d="M113.68,238.49c0,.2.3.41.77.52a13.45,13.45,0,0,1,2.79.93c.45.21.84.23.87,0s-.31-.57-.76-.78a14.85,14.85,0,0,0-2.77-.89C114.12,238.19,113.72,238.3,113.68,238.49Z"/><polygon class="h" points="146.51 113.13 155.03 169.78 166.52 239.32 155.48 242.75 142.71 177.26 128.33 112.59 146.51 113.13"/><path class="h" d="M133.49,113.8l-17.79,2.32L115,184l-.76,53.35a35.76,35.76,0,0,1,6.18,2.61c.86.5,3.15,2,3.15,2L127,181.17Z"/><path class="k" d="M99,50.74S92,52.12,89.09,53c-8,2.42-10.7,4.12-12.64,6.31s2.32,2.45,4.47,4.42,19.36-.87,23-3.5S101.35,50.74,99,50.74Z"/><path class="g" d="M128.66,44.23s1.94,7.22,6.67,8.53-7.31,7-13.55,5.26-6.45-7.22-6.45-7.22,4.73.43,4.3-2.85S126.94,40.94,128.66,44.23Z"/><path class="l" d="M120.27,54.73c-1.53-.95-3.65-4.37-4.51-5.69s-7.53-1.09-14.2.44-9.68,2.35-10.32,2.57,5.16.93,7.1,7.72,2.42,7.89,2.42,7.89l4.46-.66s7.49,63.52,8.56,68.77,27.52,8.7,36.85,3.53c0,0-6.46-60-7.54-64.6l.41-21.94s-8.54-1.35-10.91-1.35C132.59,51.41,130.45,61.1,120.27,54.73Z"/><path class="k" d="M155.78,69.76s9.6,22.35,10.45,28.82-3.43,6.5-7.35,4.32c-3.11-1.73-9.62-17.56-11.31-20.15S155.36,66.74,155.78,69.76Z"/><path class="g" d="M166.23,98.58c-.85-6.47-10.45-28.82-10.45-28.82-.22-1.56-2.87,1.28-5.13,4.74,1.08-1.12,1.91-1.55,2-.71,0,0,9.6,22.35,10.45,28.83a17.24,17.24,0,0,1,.18,2.94C165.83,104.67,166.89,103.65,166.23,98.58Z"/><path class="g" d="M77.32,57.63C80,55.76,82,55.91,90.25,58.93c11,4,14.62,5.61,16.32,6.47s1.48,3.67,2.33,6.91a31.28,31.28,0,0,1,.63,8c0,.65-4,3-4,3l-1.7-2.37-.63-3.88a12.7,12.7,0,0,1,3,0c.85.21-2.31-1.78-2.12-5.18.21-3.89-1.69-4.53-4.66-4.32s-16.53.86-19.08.43S74.14,65.84,75,62.6,76.2,58.41,77.32,57.63Z"/><path class="g" d="M156.9,100.31l-14.1,16.54S172.43,105.5,165,101C159.16,97.43,156.9,100.31,156.9,100.31Z"/><path class="l" d="M140.05,53.71s6.47-4.24,11.55,5.25a155.41,155.41,0,0,1,7.63,16.71s-10.71,13.3-14.16,7.8a73.7,73.7,0,0,1-4.35-7.1C136.36,65.92,140.05,53.71,140.05,53.71Z"/><path class="g" d="M147.79,109.23c-1.19.45-1.13.37-1.13.37a4.85,4.85,0,0,1-.72,2.93c-.45.63-2.13,2.43-2.13,2.43l-2.46,2.71-1.24,1.16s-.75.61-.8.91c-.18.86.53.67.53.67l5.18-4.08-3.79,5.1s-.38.74-.1,1.07.43.1.43.1l5.61-4.74-1.67,2.85s-.36.73-.1,1.07.35.47.35.47l4.17-5.33S149,108.79,147.79,109.23Z"/><path class="g" d="M145.66,117.34l-2.47,3.74a3.76,3.76,0,0,0-.72,1.33.59.59,0,0,0,.44.73l4.26-5.28Z"/></svg>